<svg xmlns="http://www.w3.org/2000/svg" xmlns:xlink="http://www.w3.org/1999/xlink" width="500" zoomAndPan="magnify" viewBox="0 0 375 374.999991" height="500" preserveAspectRatio="xMidYMid meet" version="1.0"><defs><clipPath id="2cbb75d616"><path d="M 39.898438 39.898438 L 335.09375 39.898438 L 335.09375 335.398438 L 39.898438 335.398438 Z M 39.898438 39.898438 " clip-rule="nonzero"/></clipPath></defs><g clip-path="url(#2cbb75d616)"><path fill="#000000" d="M 187.34375 39.898438 C 268.816406 39.898438 335.09375 106.179688 335.09375 187.648438 C 335.09375 269.121094 268.816406 335.398438 187.34375 335.398438 C 105.875 335.398438 39.59375 269.121094 39.59375 187.648438 C 39.59375 106.179688 105.875 39.898438 187.34375 39.898438 Z M 187.550781 144.996094 C 187.941406 145.035156 189.261719 145.28125 192.089844 146.863281 C 201.484375 152.125 210.558594 157.765625 219.847656 163.125 C 223.382812 165.160156 224.726562 167.507812 224.644531 171.492188 C 224.347656 181.558594 224.496094 189.140625 224.609375 194.671875 C 224.761719 202.472656 224.847656 206.773438 223.566406 209.019531 C 222.289062 211.265625 218.542969 213.402344 211.75 217.273438 C 207.164062 219.890625 200.878906 223.472656 192.859375 228.542969 C 189.074219 230.9375 186.332031 230.929688 182.371094 228.539062 C 161.773438 216.164062 139.464844 202.832031 115.816406 189.167969 C 112.941406 187.390625 108.933594 189.710938 109.03125 193.082031 C 109.03125 196.402344 108.972656 199.667969 108.921875 202.890625 C 108.78125 211.265625 108.648438 219.179688 109.429688 227.226562 C 109.957031 232.683594 115.003906 238.148438 119.46875 240.917969 C 138.347656 252.632812 157.285156 263.535156 176.199219 274.777344 C 179.945312 277.003906 183.730469 278.113281 187.527344 278.113281 C 191.390625 278.113281 195.269531 276.964844 199.136719 274.660156 C 216.917969 264.054688 235.269531 253.199219 255.253906 241.472656 C 263.066406 236.886719 266.824219 230.046875 266.75 220.550781 C 266.582031 199.457031 266.582031 177.925781 266.746094 154.71875 C 266.808594 145.808594 263.445312 139.28125 256.753906 135.3125 C 241.105469 126.039062 225.398438 116.871094 209.691406 107.703125 L 192.75 97.808594 C 192.0625 97.40625 191.277344 97.191406 190.472656 97.191406 C 190.472656 97.191406 184.503906 97.191406 184.503906 97.191406 C 178.019531 99.175781 170.027344 105.417969 163.539062 108.644531 C 148.832031 117.148438 133.628906 125.941406 118.847656 134.945312 C 104.71875 142.867188 104.347656 166.035156 118.429688 174.160156 C 137.371094 185.929688 156.96875 197.242188 175.921875 208.183594 C 175.921875 208.183594 181.816406 211.589844 181.816406 211.589844 C 187.4375 214.273438 193.539062 212.316406 197.722656 209.15625 C 210.175781 201.824219 214.210938 191.894531 210.425781 177.910156 C 209.378906 174.042969 205.703125 171.304688 203.601562 170.011719 C 194.121094 164.1875 183.960938 158.210938 173.871094 152.207031 C 178.789062 149.386719 183.074219 146.9375 187.550781 144.996094 Z M 201.707031 180.296875 C 201.582031 179.960938 200.699219 178.84375 198.875 177.71875 C 190.421875 172.535156 181.78125 167.414062 172.636719 161.988281 L 162.550781 156.003906 C 159.59375 154.371094 159.65625 149.699219 162.675781 148.160156 C 169.917969 144.167969 176.9375 139.703125 184.269531 136.5625 C 187.335938 135.242188 191.230469 136.007812 196.511719 138.96875 C 205.988281 144.273438 215.03125 149.898438 224.371094 155.285156 C 230.703125 158.9375 233.839844 164.453125 233.691406 171.71875 C 233.398438 181.601562 233.546875 189.050781 233.652344 194.492188 C 234.039062 214.015625 233.226562 215.445312 216.234375 225.128906 C 211.472656 227.84375 205.546875 231.222656 197.703125 236.1875 C 191.066406 240.390625 184.523438 240.40625 177.707031 236.285156 C 159.117188 225.113281 139.117188 213.15625 118.011719 200.890625 C 117.875 209.582031 117.640625 218.195312 118.441406 226.355469 C 118.597656 227.96875 121.164062 231.320312 124.246094 233.230469 C 137.421875 241.410156 151.023438 249.417969 164.179688 257.164062 C 169.734375 260.4375 175.289062 263.707031 180.832031 267.003906 C 185.503906 269.773438 189.722656 269.746094 194.507812 266.890625 C 212.304688 256.273438 230.679688 245.40625 250.683594 233.667969 C 255.65625 230.75 257.761719 226.847656 257.714844 220.617188 C 257.542969 199.480469 257.542969 177.90625 257.710938 154.652344 C 257.765625 147.277344 254.5625 144.523438 252.148438 143.09375 C 236.515625 133.832031 220.828125 124.675781 205.136719 115.515625 L 189.246094 106.238281 L 185.730469 106.238281 C 179.851562 109.664062 173.960938 113.070312 168.070312 116.476562 C 153.410156 124.957031 138.246094 133.722656 123.554688 142.671875 C 115.132812 147.371094 114.773438 161.625 123.210938 166.476562 C 142.023438 178.167969 161.558594 189.445312 180.445312 200.351562 L 186.210938 203.695312 C 186.941406 203.925781 189.261719 203.484375 190 203.34375 C 190.855469 202.953125 192.203125 201.898438 193.136719 201.363281 C 201.992188 196.148438 204.394531 190.234375 201.707031 180.296875 Z M 201.707031 180.296875 " fill-opacity="1" fill-rule="nonzero"/></g></svg>